<?xml version="1.0" encoding="utf-8"?>
<!-- Generator: Adobe Illustrator 25.2.1, SVG Export Plug-In . SVG Version: 6.00 Build 0)  -->
<svg version="1.1" id="Layer_1" xmlns="http://www.w3.org/2000/svg" xmlns:xlink="http://www.w3.org/1999/xlink" x="0px" y="0px"
	 viewBox="0 0 462.6 71.8" style="enable-background:new 0 0 462.6 71.8;" xml:space="preserve">
<g>
	<path d="M54.2,44.7c0,2.8-1.1,4.8-3.4,6.1c-2.3,1.3-5.3,2-8.9,2H14.5c-1.5,0-3-0.2-4.5-0.5c-1.5-0.3-2.8-0.8-3.9-1.5
		C4.9,50,4,49.2,3.3,48.2c-0.7-1-1-2.1-1-3.5h39.1v-7.2H14c-1.5,0-3-0.2-4.4-0.5c-1.4-0.3-2.6-0.8-3.7-1.5C4.8,34.8,3.9,34,3.3,33
		c-0.6-1-1-2.2-1-3.6V23c0-1.5,0.3-2.9,1-4c0.6-1.1,1.5-2,2.6-2.8c1.1-0.7,2.3-1.2,3.7-1.6c1.4-0.3,2.9-0.5,4.5-0.5H42
		c3.7,0,6.6,0.6,8.9,1.9c2.2,1.3,3.3,3.3,3.3,6.2H15.4v7.1h26.5c1.5,0,3,0.1,4.5,0.4c1.5,0.3,2.8,0.7,3.9,1.3c1.1,0.6,2,1.4,2.8,2.4
		c0.7,1,1.1,2.1,1.1,3.4V44.7z"/>
	<path d="M97.5,52.6V37.5H71.6v6c0,1.9-0.3,3.4-0.8,4.4c-0.6,1-1.4,1.9-2.6,2.6c-1.1,0.7-2.4,1.2-3.9,1.6c-1.5,0.4-3.1,0.6-4.7,0.6
		h-0.8v-30c0-1.5,0.3-2.7,0.9-3.8c0.6-1,1.5-1.9,2.5-2.6c1.1-0.7,2.3-1.2,3.7-1.5c1.4-0.3,2.9-0.5,4.4-0.5h40.1v38.4H97.5z
		 M97.5,22.3H71.6v7.1h25.9V22.3z"/>
	<path d="M158.9,52.5c-0.7,0-1.5,0-2.5-0.1c-1-0.1-2-0.3-3.1-0.5c-1.1-0.3-2.3-0.7-3.4-1.2c-1.1-0.5-2.2-1.3-3.1-2.2l-13.7-12.9
		l-5.1-4.8v21.7h-12.8V14.2h2.6c0.7,0,1.5,0,2.5,0.1c1,0.1,2.1,0.3,3.2,0.5c1.1,0.3,2.2,0.7,3.4,1.2c1.2,0.5,2.2,1.3,3.2,2.2
		l13.7,12.9c0.1,0.1,0.3,0.3,0.8,0.8s1.2,1.1,2,1.8c0.8,0.8,1.6,1.4,2.2,2V21.9c0-2.7,1.1-4.7,3.3-5.9c2.2-1.2,5-1.8,8.6-1.8h1v38.3
		H158.9z"/>
	<path d="M217.7,44.7c0,1.4-0.3,2.6-0.9,3.5c-0.6,1-1.4,1.8-2.5,2.5c-1.1,0.7-2.3,1.2-3.7,1.5c-1.4,0.3-2.9,0.5-4.6,0.5h-39.9V14.2
		H206c3.6,0,6.4,0.7,8.5,2.1s3.1,3.4,3.1,6V44.7z M179.2,22.3v22.5H205V22.3H179.2z"/>
	<path d="M273.1,37.4c-0.1,0.4-0.6,0.9-1.8,1.8c-1.1,0.8-2.5,1.8-4.2,2.9c-1.7,1.1-3.5,2.3-5.5,3.5c-2,1.2-3.9,2.4-5.8,3.6
		c-1.9,1.2-3.6,2.2-5.1,3c-1.5,0.9-2.7,1.5-3.4,1.8c-0.7-0.3-1.8-0.9-3.3-1.8c-1.5-0.9-3.2-1.9-5-3c-1.8-1.2-3.7-2.3-5.7-3.6
		c-1.9-1.2-3.7-2.4-5.3-3.5c-1.6-1.1-3-2.1-4-2.9c-1.1-0.8-1.6-1.4-1.7-1.8V14.2h1.2c3.2,0,6,0.7,8.4,2.1c2.2,1.1,3.3,2.8,3.3,5.1
		v13c0,0.3,0.5,0.8,1.5,1.6c1,0.8,2.2,1.7,3.6,2.6c1.4,0.9,2.7,1.8,4.1,2.7c1.4,0.9,2.4,1.5,3,1.8c0.7-0.4,1.7-1,3.1-1.9
		c1.4-0.8,2.9-1.7,4.3-2.7c1.4-0.9,2.6-1.8,3.7-2.6c1.1-0.8,1.6-1.3,1.6-1.5V21.3c0-2,1.2-3.8,3.5-5.2c2.2-1.3,5-1.9,8.4-1.9h1.1
		V37.4z"/>
	<path d="M289.2,52.6c-1.5,0-3-0.2-4.4-0.6c-1.4-0.4-2.6-0.9-3.6-1.6c-1-0.7-1.9-1.5-2.5-2.5c-0.6-1-0.9-2.1-0.9-3.3V14.2h12.8v38.4
		H289.2z"/>
	<path d="M346.7,29.4c0,2.7-1.3,4.7-3.9,6.1c-2.6,1.4-6.1,2-10.5,2h-19.2c0-0.8,0.1-1.7,0.4-2.7c0.3-1,0.7-1.9,1.3-2.6
		c0.6-0.8,1.4-1.4,2.3-2c1-0.5,2.1-0.8,3.5-0.8h13.2v-7.1H308v21.4c0,3.6-1.1,6-3.3,7.4c-1.1,0.7-2.4,1.1-3.8,1.3
		c-1.4,0.2-2.9,0.3-4.4,0.3h-1.3V14.2H335c3.5,0,6.3,0.7,8.5,2.1s3.3,3.4,3.3,6V29.4z"/>
	<path d="M388.6,37.5h-24.5v7.2h38.8c0,1.4-0.3,2.6-0.9,3.6s-1.4,1.8-2.5,2.5c-1.1,0.6-2.3,1.1-3.7,1.4c-1.4,0.3-2.9,0.5-4.6,0.5
		h-28.4c-1.6,0-3.1-0.2-4.5-0.6c-1.4-0.4-2.6-0.9-3.6-1.6c-1-0.7-1.9-1.5-2.5-2.5c-0.6-1-0.9-2.1-0.9-3.3V22.2
		c0-1.2,0.3-2.3,0.9-3.2c0.6-1,1.4-1.8,2.5-2.5c1-0.7,2.3-1.2,3.6-1.6c1.4-0.4,2.8-0.6,4.4-0.6h28.5c3.5,0,6.4,0.7,8.5,2.1
		c2.1,1.4,3.2,3.4,3.2,6h-38.8v7.1h24.5V37.5z"/>
	<path d="M444.7,52.7l-18.3-23.3h20v-7.1h-26v21.3c0,3.6-1.1,6.1-3.3,7.4c-1.1,0.7-2.4,1.1-3.8,1.3c-1.4,0.2-2.9,0.3-4.4,0.3h-1.3
		V14.2h39.9c3.6,0,6.4,0.7,8.5,2.1s3.1,3.4,3.1,6v7.3c0,2.5-1,4.4-2.9,5.8c-1.9,1.4-4.6,2.1-8.2,2.3l12.3,15.1H444.7z"/>
</g>
</svg>
